# xmcd CD database file
#
# Track frame offsets:
#	150
#	34379
#	84962
#	113322
#	139167
#	170174
#	197894
#	222052
#	263913
#
# Disc length: 3904 seconds
#
# Revision: 1
# Processed by: cddbd v1.5.1PL0 Copyright (c) Steve Scherf et al.
# Submitted via: CDex 1.51
#
DISCID=7b0f3e09
DTITLE=Changes - Charisma
DYEAR=2004
DGENRE=Jazz
TTITLE0=Charisma
TTITLE1=Reasons to fly
TTITLE2=Dreams of kwan
TTITLE3=Easy street
TTITLE4=The wizard
TTITLE5=Heurka
TTITLE6=Bridge
TTITLE7=To her ladyship
TTITLE8=Con Alma
EXTD=YEAR: 2004
EXTT0=
EXTT1=
EXTT2=
EXTT3=
EXTT4=
EXTT5=
EXTT6=
EXTT7=
EXTT8=
PLAYORDER=
